<svg width="1474" height="1730" viewBox="0 0 1474 1730" fill="none" xmlns="http://www.w3.org/2000/svg">
<circle opacity="0.5" cx="811.5" cy="876.5" r="662.5" fill="#F2F2F2"/>
<circle cx="478" cy="1252" r="478" fill="white"/>
<g clip-path="url(#clip0)">
<path d="M355.881 577.25H746.711C748.069 577.25 749.371 577.789 750.331 578.75C751.291 579.71 751.831 581.012 751.831 582.37V612.49C751.831 613.848 751.291 615.15 750.331 616.11C749.371 617.071 748.069 617.61 746.711 617.61H543.371V690.17" stroke="#1573CA" stroke-width="5" stroke-miterlimit="10"/>
<path d="M402 35.25L382.55 177.72C377.664 213.377 383.171 249.686 398.41 282.29L426.84 342.88C445.73 383.14 478.34 414.59 518.27 431.06L604.11 466.47L402 35.25Z" fill="#2F2F2F" stroke="#1573CA" stroke-width="5" stroke-miterlimit="10"/>
<path d="M466.781 577.39H350.201C323.711 577.39 304.291 551.39 310.751 524.54L364.751 341.81C369.751 320.99 387.691 306.4 408.251 306.4" stroke="#1573CA" stroke-width="5" stroke-miterlimit="10"/>
<path d="M611.521 474.51C610.413 474.502 609.331 474.176 608.402 473.572C607.473 472.967 606.737 472.11 606.281 471.1L400.481 31.82C398.581 27.77 401.411 23.05 405.721 23.05C406.835 23.0534 407.925 23.3765 408.861 23.981C409.797 24.5855 410.539 25.4459 411.001 26.46L616.761 465.74C618.661 469.79 615.831 474.51 611.521 474.51Z" fill="#2F2F2F" stroke="#1573CA" stroke-width="5" stroke-miterlimit="10"/>
<path d="M483.06 574.82C491.372 574.82 498.11 568.082 498.11 559.77C498.11 551.458 491.372 544.72 483.06 544.72C474.748 544.72 468.01 551.458 468.01 559.77C468.01 568.082 474.748 574.82 483.06 574.82Z" stroke="#1573CA" stroke-width="5" stroke-miterlimit="10"/>
<path d="M468.061 561.79C467.791 552.61 473.841 544.99 483.061 544.72L484.521 544.67C488.435 544.556 492.346 544.943 496.161 545.82L617.931 574" stroke="#1573CA" stroke-width="5" stroke-miterlimit="10"/>
<path d="M1166.8 425.6L1070.13 781.8C1065.23 799.885 1054.51 815.854 1039.63 827.24C1024.75 838.627 1006.54 844.798 987.801 844.8H660.361" stroke="#1573CA" stroke-width="5" stroke-miterlimit="10"/>
<path d="M686.832 844.76L950.772 1245.18" stroke="#1573CA" stroke-width="5" stroke-miterlimit="10" stroke-linecap="round"/>
<path d="M975.772 844.76L687.832 1249.18" stroke="#1573CA" stroke-width="5" stroke-miterlimit="10" stroke-linecap="round"/>
<path d="M691.17 1108.53C691.17 1108.53 677.44 1129.53 653.6 1126.59L637.48 1103.52C654.109 1099.95 670.382 1094.88 686.1 1088.38C687.74 1096.05 689.45 1103.08 691.17 1108.53Z" fill="#FFCFC9"/>
<path d="M1031 742.25C1021.34 763.88 989.161 820.08 915.141 822.41C823.381 825.3 654.561 816.64 654.561 816.64C654.561 816.64 693.171 969.2 694.001 1084.81C694.001 1084.81 663.571 1100.25 618.401 1107.03C618.401 1107.03 456.401 804.03 488.571 729.95C512.511 674.84 694.471 653.41 776.721 646.49C810.901 666.31 924.631 728.42 1031 742.25Z" fill="#262626"/>
<path d="M691.171 1108.53C691.171 1108.53 707.851 1126.87 726.261 1141.43C737.921 1150.65 733.341 1168.43 723.411 1183.37C708.478 1205.78 691.906 1227.04 673.831 1247C673.831 1247 648.001 1249.73 597.731 1247.67C597.731 1247.67 595.851 1229.83 613.621 1221.77C654.121 1203.4 663.241 1154.77 653.621 1126.64C653.601 1126.59 673.831 1130.2 691.171 1108.53Z" fill="#2F2F2F"/>
<path d="M734.19 1146.64C739.03 1156.91 731.83 1172.35 724.41 1183.37C724.41 1183.37 696.83 1221.82 675.83 1247.95L596.73 1248.62" stroke="#1573CA" stroke-width="7" stroke-miterlimit="10" stroke-linecap="round"/>
<path d="M648.48 1208.33C648.48 1208.33 630.23 1196.39 643.48 1189.09" stroke="#1573CA" stroke-width="5" stroke-miterlimit="10" stroke-linecap="round"/>
<path d="M658.481 1197.33C658.481 1197.33 636.231 1185.39 649.481 1178.09" stroke="#1573CA" stroke-width="5" stroke-miterlimit="10" stroke-linecap="round"/>
<path d="M928.381 238.71C928.381 238.71 1012.18 215.62 1018.11 147.05C1019.12 135.44 928.381 238.71 928.381 238.71Z" fill="#1573CA"/>
<path d="M929.393 104.69C929.393 104.69 965.563 180.32 998.843 208.55C998.843 208.55 945.712 243.88 901.112 243.86C901.112 243.86 871.913 192.44 859.812 172.77L929.393 104.69Z" fill="#FFCFC9"/>
<path d="M887.162 219.45C877.932 203.38 866.363 183.45 859.812 172.77L912.753 121L916.383 128.23C920.243 162.89 910.572 200.71 887.162 219.45Z" fill="#FFC0B7"/>
<path d="M917.782 119.81C917.782 119.81 917.622 148.81 906.592 164.86C892.712 185.07 857.382 206.86 830.492 202.86C803.602 198.86 780.152 62.67 800.322 54.61C820.492 46.55 876.842 39.15 893.642 64C910.442 88.85 917.782 119.81 917.782 119.81Z" fill="#FFCFC9"/>
<path d="M946.002 136.62C946.002 136.62 934.292 138.5 917.272 130.69C917.802 124.33 918.042 111.27 911.462 107.51C904.282 103.41 900.182 114.98 898.912 119.36C897.379 118.173 895.829 116.897 894.262 115.53C866.262 91.2001 873.552 67.3801 873.552 67.3801C873.552 67.3801 831.892 91.8801 792.202 90.2601C759.262 88.9201 743.132 42.8201 770.902 29.0801C770.902 29.0801 768.902 41.7101 793.142 35.6601C817.382 29.6101 812.672 5.00005 846.642 0.670055C888.502 -4.61995 897.152 23.1101 897.152 23.1101C897.152 23.1101 917.202 12.5601 937.842 31.7501C959.832 52.2001 931.422 109.28 946.002 136.62Z" fill="#1573CA"/>
<path d="M877.832 62.94C877.832 62.94 838.892 94 796.572 99.51C756.762 104.69 739.322 53.28 766.372 34.64" stroke="#1573CA" stroke-width="4" stroke-miterlimit="10"/>
<path d="M893.551 25.1801C893.551 25.1801 907.161 5.82009 932.931 17.1801" stroke="#1573CA" stroke-width="4" stroke-miterlimit="10"/>
<path d="M1039.8 743.29C1071 712.73 1110.74 520 1100.36 396.44C1099.71 382.373 1097.65 368.406 1094.21 354.75V354.75C1092.44 346.71 1090.07 338.815 1087.12 331.13C1078.12 308.13 1057.54 284.13 1028.92 267.74C999.751 246.85 961.691 232.4 911.251 240.84C836.171 253.4 818.741 328.35 814.701 362.47L814.641 362.41L794.271 476.93L645.631 482.54V531.16C645.631 531.16 767.601 605.56 854.001 584L854.761 583.8C813.761 623.9 766.441 640.4 766.441 640.4C766.441 640.4 910.411 729.72 1039.8 743.29Z" fill="#2F2F2F"/>
<path d="M927.001 427.36C927.001 427.36 898.541 570.71 845.631 589" stroke="#1573CA" stroke-width="5" stroke-miterlimit="10" stroke-linecap="round"/>
<path d="M928.381 238.71C951.571 235.71 1013.02 196.64 1018.06 145.21C1018.06 145.21 1110.45 238.71 1076.61 313.42C1076.61 313.42 1057.77 278.42 1017.03 257.15C968.271 231.72 928.381 238.71 928.381 238.71Z" fill="#2F2F2F"/>
<path d="M1084.78 317.47C1084.78 317.47 1056.78 280.25 1017.03 257.15C961.38 224.8 892.92 241.75 892.92 241.75" stroke="#1573CA" stroke-width="5" stroke-miterlimit="10" stroke-linecap="round"/>
<path d="M646.111 513.88C646.111 513.88 631.341 537.23 615.621 533.88C599.901 530.53 585.271 528.23 577.301 532.33C567.451 537.4 557.671 548.59 551.241 548.38C543.457 548.177 535.785 546.479 528.641 543.38C532.687 535.134 537.146 527.097 542.001 519.3C536.551 522.75 529.321 529.83 525.321 532.51C518.921 536.81 514.441 530.69 514.441 530.69C514.441 530.69 525.501 514.98 530.341 510.89C534.991 506.96 551.771 494.77 559.091 493.69C567.881 491.6 611.251 485.25 646.211 482.86L646.111 513.88Z" fill="#FFCFC9"/>
<path d="M536.801 543.6C536.801 543.6 556.411 514.88 561.861 512.86C571.461 509.31 583.981 504.62 583.981 504.62" stroke="#F7B3AF" stroke-width="4" stroke-miterlimit="10" stroke-linecap="round"/>
<path d="M546.352 546.2C546.352 546.2 564.072 522.2 569.512 520.2C579.112 516.65 591.642 511.95 591.642 511.95" stroke="#F7B3AF" stroke-width="4" stroke-miterlimit="10" stroke-linecap="round"/>
</g>
<defs>
<clipPath id="clip0">
<rect width="862.22" height="1252.12" fill="white" transform="translate(307)"/>
</clipPath>
</defs>
</svg>
