<svg width="371" height="248" viewBox="0 0 371 248" fill="none" xmlns="http://www.w3.org/2000/svg">
<path opacity="0.48" d="M361.45 0.0400391H8.95C4.00705 0.0400391 0 4.04709 0 8.99004V228.34C0 233.283 4.00705 237.29 8.95 237.29H361.45C366.393 237.29 370.4 233.283 370.4 228.34V8.99004C370.4 4.04709 366.393 0.0400391 361.45 0.0400391Z" fill="white"/>
<path d="M145.13 207.43C146.049 208.647 147.152 209.714 148.4 210.59C150.256 211.591 152.299 212.197 154.4 212.37L186.32 217.18C186.638 217.202 186.944 217.305 187.21 217.48C187.387 217.672 187.521 217.9 187.602 218.149C187.683 218.397 187.71 218.66 187.68 218.92C187.828 224.896 187.021 230.858 185.29 236.58C185.199 237.048 184.973 237.479 184.64 237.82C184.209 238.112 183.7 238.265 183.18 238.26C172.44 239.17 161.65 238.88 150.88 238.59C149.069 238.616 147.262 238.417 145.5 238C142.5 237.16 140.05 235.11 137.79 233C132.94 228.49 113.31 210.36 112.12 207.9C110.542 204.376 109.271 200.722 108.32 196.98C107.32 193.38 114.63 192.93 114.48 189.19C114.375 186.604 114.685 184.018 115.4 181.53C115.932 179.311 117.035 177.27 118.6 175.61C119.7 174.61 118 167.83 119.52 167.75C121.28 173.75 129.24 185.75 132.7 190.89C136.546 196.621 140.695 202.142 145.13 207.43Z" fill="white"/>
<path d="M145.13 207.43C146.049 208.647 147.152 209.714 148.4 210.59C150.256 211.591 152.299 212.197 154.4 212.37L186.32 217.18C186.638 217.202 186.944 217.305 187.21 217.48C187.387 217.672 187.521 217.9 187.602 218.149C187.683 218.397 187.71 218.66 187.68 218.92C187.828 224.896 187.021 230.858 185.29 236.58C185.199 237.048 184.973 237.479 184.64 237.82C184.209 238.112 183.7 238.265 183.18 238.26C172.44 239.17 161.65 238.88 150.88 238.59C149.069 238.616 147.262 238.417 145.5 238C142.5 237.16 140.05 235.11 137.79 233C132.94 228.49 113.31 210.36 112.12 207.9C110.542 204.376 109.271 200.722 108.32 196.98C107.32 193.38 114.63 192.93 114.48 189.19C114.375 186.604 114.685 184.018 115.4 181.53C115.932 179.311 117.035 177.27 118.6 175.61C119.7 174.61 118 167.83 119.52 167.75C121.28 173.75 129.24 185.75 132.7 190.89C136.546 196.621 140.695 202.142 145.13 207.43Z" fill="url(#paint0_linear)"/>
<path d="M64.3599 156.77C62.2101 158.686 60.2047 160.759 58.3599 162.97C53.9399 168.4 50.9999 174.86 48.2599 181.3C40.9699 198.44 34.6199 216.77 36.5099 235.3C36.5457 236.415 36.8474 237.505 37.3899 238.48C38.2506 239.583 39.4597 240.362 40.8199 240.69C44.3299 241.81 48.0799 241.86 51.8199 241.89C66.2299 242.02 80.6599 242.15 95.0599 241.45C97.2899 241.34 99.6499 241.17 101.5 239.91C102.851 238.875 103.929 237.526 104.64 235.98C108.51 228.7 109.64 220.28 112.64 212.62C116.64 202.62 127.64 193.53 125.32 182.99C115.4 138.24 68.8999 152.64 64.3599 156.77Z" fill="white"/>
<path d="M64.3599 156.77C62.2101 158.686 60.2047 160.759 58.3599 162.97C53.9399 168.4 50.9999 174.86 48.2599 181.3C40.9699 198.44 34.6199 216.77 36.5099 235.3C36.5457 236.415 36.8474 237.505 37.3899 238.48C38.2506 239.583 39.4597 240.362 40.8199 240.69C44.3299 241.81 48.0799 241.86 51.8199 241.89C66.2299 242.02 80.6599 242.15 95.0599 241.45C97.2899 241.34 99.6499 241.17 101.5 239.91C102.851 238.875 103.929 237.526 104.64 235.98C108.51 228.7 109.64 220.28 112.64 212.62C116.64 202.62 127.64 193.53 125.32 182.99C115.4 138.24 68.8999 152.64 64.3599 156.77Z" fill="url(#paint1_linear)"/>
<path d="M129.48 119.7C127.79 127.91 126.02 136.34 121.48 143.41C119.825 146.265 117.431 148.621 114.55 150.23C111.62 151.7 107.9 151.9 105.16 150.1C103.79 149.21 102.29 147.81 100.8 148.47C99.7201 148.96 99.3701 150.3 99.2201 151.47C98.8448 154.344 98.8852 157.257 99.3401 160.12C99.5256 160.926 99.573 161.758 99.4801 162.58C99.2864 163.341 98.8763 164.029 98.2995 164.561C97.7227 165.094 97.0039 165.448 96.2301 165.58C94.683 165.806 93.1039 165.558 91.7001 164.87C89.5163 163.893 87.6052 162.396 86.1339 160.51C84.6625 158.624 83.6758 156.406 83.2601 154.05C83.0503 152.459 82.9501 150.855 82.9601 149.25C82.7701 142.13 81.6401 135.04 81.8701 127.93C82.1001 120.82 83.8701 113.42 88.7001 108.17C91.4895 105.311 94.8031 103.016 98.4601 101.41C103.91 98.81 109.99 96.98 115.95 97.93C118.322 98.3046 120.584 99.1887 122.582 100.521C124.579 101.854 126.264 103.604 127.52 105.65C130.64 110.44 130.65 114.01 129.48 119.7Z" fill="#FFDAD2"/>
<path d="M144.37 101.61C144.776 98.273 144.157 94.8915 142.593 91.9154C141.03 88.9393 138.598 86.5097 135.62 84.95C132.97 83.63 130.02 83.07 127.16 82.31C120.46 80.51 114.03 77.53 107.16 76.89C100.29 76.25 92.3902 78.66 89.3302 84.89C88.7702 86.03 88.2202 87.41 86.9902 87.71C86.3182 87.7824 85.6385 87.7212 84.9902 87.53C80.4002 86.72 76.2702 90.64 74.2002 94.81C70.8602 101.56 70.6902 109.43 71.4202 116.92C72.0902 123.85 73.8602 131.34 79.4202 135.56C79.9702 135.98 80.7802 136.36 81.3102 135.91C81.5529 135.656 81.7041 135.329 81.7402 134.98C82.2994 132.352 82.5079 129.662 82.3602 126.98C82.2502 124.98 81.9302 122.86 82.4502 120.89C82.9702 118.92 84.6402 117.05 86.6802 117.11C88.5702 117.11 90.0902 118.87 90.5602 120.71C90.8951 122.583 90.8235 124.507 90.3502 126.35C90.6502 127.1 91.7002 126.2 91.8802 125.42C93.2602 119.14 93.5702 112.11 97.9302 107.42C98.8173 108.338 99.4632 109.461 99.8102 110.69C100.462 110.015 101.291 109.537 102.201 109.31C103.112 109.084 104.068 109.119 104.96 109.41C106.225 109.961 107.389 110.721 108.4 111.66C119.02 119.95 142.14 117.49 144.37 101.61Z" fill="#2F2F2F"/>
<path d="M67.42 167.01C64.06 169.45 62.42 173.74 62.32 177.88C62.22 182.02 66.6 208.29 70.73 215.75C73.93 221.55 80.6 236.69 90.73 240.87C93.73 242.11 138.08 241.59 158.66 239.36C158.53 234.49 158.29 229.62 157.97 224.75C158 224.108 157.806 223.475 157.42 222.96C156.9 222.42 156.16 218.89 155.42 218.89C143.42 218.94 131.32 222.61 119.32 222.89C117.577 223.002 115.827 222.898 114.11 222.58C112.705 222.229 111.357 221.677 110.11 220.94C100.85 215.7 95.73 205.41 92.11 195.4C89.34 187.68 87.11 179.69 83.11 172.48C81.69 169.91 80.42 167.41 77.62 166.28C74.33 164.95 70.47 164.8 67.42 167.01Z" fill="white"/>
<path d="M67.42 167.01C64.06 169.45 62.42 173.74 62.32 177.88C62.22 182.02 66.6 208.29 70.73 215.75C73.93 221.55 80.6 236.69 90.73 240.87C93.73 242.11 138.08 241.59 158.66 239.36C158.53 234.49 158.29 229.62 157.97 224.75C158 224.108 157.806 223.475 157.42 222.96C156.9 222.42 156.16 218.89 155.42 218.89C143.42 218.94 131.32 222.61 119.32 222.89C117.577 223.002 115.827 222.898 114.11 222.58C112.705 222.229 111.357 221.677 110.11 220.94C100.85 215.7 95.73 205.41 92.11 195.4C89.34 187.68 87.11 179.69 83.11 172.48C81.69 169.91 80.42 167.41 77.62 166.28C74.33 164.95 70.47 164.8 67.42 167.01Z" fill="url(#paint2_linear)"/>
<path d="M156.9 217.95C163.13 217.36 170.05 218.75 174 223.6C174.416 224.042 174.688 224.6 174.78 225.2C174.776 225.74 174.608 226.267 174.3 226.71C171.97 230.58 166.91 231.5 162.66 233.03C160.449 233.822 158.338 234.869 156.37 236.15C155.262 237.029 153.981 237.663 152.61 238.01C149.61 238.46 147.12 235.78 145.76 233.1C144.2 230.1 141.76 223.94 144.76 221.1C147.21 218.85 153.82 218.23 156.9 217.95Z" fill="#FFDAD2"/>
<path d="M208.49 216.41C209.599 217.041 210.553 217.912 211.28 218.96C211.635 219.49 211.846 220.104 211.892 220.741C211.937 221.377 211.816 222.015 211.54 222.59C211.068 223.299 210.425 223.877 209.67 224.27C204.14 227.56 197.36 228.15 191.76 231.27C190.611 232.105 189.294 232.678 187.9 232.95C187.081 232.968 186.269 232.797 185.526 232.45C184.784 232.103 184.132 231.59 183.62 230.95C182.6 229.677 181.818 228.23 181.31 226.68C174.76 209.48 199.07 210.41 208.49 216.41Z" fill="#FFDAD2"/>
<path d="M365.303 237H5.69666C2.55048 237 0 239.462 0 242.5C0 245.538 2.55048 248 5.69666 248H365.303C368.45 248 371 245.538 371 242.5C371 239.462 368.45 237 365.303 237Z" fill="white"/>
<path opacity="0.18" d="M370.39 9V52.8H1.07321e-09V9C-3.67015e-05 6.62169 0.941311 4.34005 2.61834 2.65365C4.29537 0.967255 6.57173 0.0132128 8.95 0H361.44C363.818 0.0132128 366.095 0.967255 367.772 2.65365C369.449 4.34005 370.39 6.62169 370.39 9Z" fill="white"/>
<path d="M159.87 236.86L288.31 236.86C291.911 236.86 294.83 233.941 294.83 230.34C294.83 226.739 291.911 223.82 288.31 223.82L159.87 223.82C156.269 223.82 153.35 226.739 153.35 230.34C153.35 233.941 156.269 236.86 159.87 236.86Z" fill="white"/>
<path d="M159.87 236.86L288.31 236.86C291.911 236.86 294.83 233.941 294.83 230.34C294.83 226.739 291.911 223.82 288.31 223.82L159.87 223.82C156.269 223.82 153.35 226.739 153.35 230.34C153.35 233.941 156.269 236.86 159.87 236.86Z" fill="url(#paint3_linear)"/>
<path d="M204.41 236.88H302.98L328.98 170.95C329.325 170.071 329.451 169.122 329.345 168.184C329.24 167.245 328.908 166.347 328.376 165.567C327.845 164.786 327.132 164.147 326.298 163.705C325.464 163.263 324.534 163.031 323.59 163.03H246.24C242.499 163.037 238.845 164.167 235.753 166.275C232.662 168.382 230.274 171.37 228.9 174.85L204.41 236.88Z" fill="white"/>
<path d="M209.42 236.95H303.04L327.73 174.32C328.059 173.486 328.18 172.583 328.081 171.692C327.981 170.8 327.665 169.946 327.161 169.205C326.656 168.463 325.977 167.856 325.184 167.437C324.391 167.018 323.507 166.799 322.61 166.8H249.15C245.591 166.798 242.114 167.868 239.172 169.869C236.229 171.87 233.957 174.71 232.65 178.02L209.42 236.95Z" fill="white"/>
<path d="M209.42 236.95H303.04L327.73 174.32C328.059 173.486 328.18 172.583 328.081 171.692C327.981 170.8 327.665 169.946 327.161 169.205C326.656 168.463 325.977 167.856 325.184 167.437C324.391 167.018 323.507 166.799 322.61 166.8H249.15C245.591 166.798 242.114 167.868 239.172 169.869C236.229 171.87 233.957 174.71 232.65 178.02L209.42 236.95Z" fill="url(#paint4_linear)"/>
<path opacity="0.51" d="M315.41 142.34H176.81V150.14H315.41V142.34Z" fill="white"/>
<path d="M275.34 128.99H176.81V136.79H275.34V128.99Z" fill="white"/>
<path d="M354.77 128.99H288.81V136.79H354.77V128.99Z" fill="white"/>
<path d="M354.54 79.61H253.13V86.54H354.54V79.61Z" fill="white"/>
<path opacity="0.51" d="M340.38 91.9199H231.89V98.8499H340.38V91.9199Z" fill="white"/>
<path d="M245.39 79.61H178.69V86.54H245.39V79.61Z" fill="white"/>
<path d="M354.54 103.86H207.95V110.79H354.54V103.86Z" fill="white"/>
<path opacity="0.51" d="M200.21 103.86H178.69V110.79H200.21V103.86Z" fill="white"/>
<path opacity="0.51" d="M354.54 116.17H257.78V123.1H354.54V116.17Z" fill="white"/>
<path d="M245.39 116.17H178.69V123.1H245.39V116.17Z" fill="white"/>
<path d="M221.58 91.63H178.69V98.56H221.58V91.63Z" fill="white"/>
<path d="M317.45 56.28H216.04V63.21H317.45V56.28Z" fill="white"/>
<path opacity="0.51" d="M303.29 68.59H194.8V75.52H303.29V68.59Z" fill="white"/>
<path d="M208.31 56.28H141.61V63.21H208.31V56.28Z" fill="white"/>
<path d="M316.55 41.9299H215.14V48.8599H316.55V41.9299Z" fill="white"/>
<path d="M207.41 28.9099H140.71V35.8399H207.41V28.9099Z" fill="white"/>
<path d="M207.41 17.03H140.71V23.96H207.41V17.03Z" fill="white"/>
<path d="M184.5 68.3H141.61V75.23H184.5V68.3Z" fill="white"/>
<defs>
<linearGradient id="paint0_linear" x1="113.34" y1="195.58" x2="163.59" y2="214.73" gradientUnits="userSpaceOnUse">
<stop offset="0.01"/>
<stop offset="0.12" stop-opacity="0.75"/>
<stop offset="1" stop-opacity="0"/>
</linearGradient>
<linearGradient id="paint1_linear" x1="11570" y1="25197.8" x2="10167.9" y2="16859.8" gradientUnits="userSpaceOnUse">
<stop offset="0.01"/>
<stop offset="0.12" stop-opacity="0.75"/>
<stop offset="1" stop-opacity="0"/>
</linearGradient>
<linearGradient id="paint2_linear" x1="13006.8" y1="20816.1" x2="14621.1" y2="16224.1" gradientUnits="userSpaceOnUse">
<stop offset="0.01"/>
<stop offset="0.12" stop-opacity="0.75"/>
<stop offset="1" stop-opacity="0"/>
</linearGradient>
<linearGradient id="paint3_linear" x1="37634.2" y1="3719.32" x2="37635" y2="3364.21" gradientUnits="userSpaceOnUse">
<stop offset="0.01"/>
<stop offset="0.12" stop-opacity="0.75"/>
<stop offset="1" stop-opacity="0"/>
</linearGradient>
<linearGradient id="paint4_linear" x1="36730.5" y1="20150.4" x2="36898.2" y2="12967.5" gradientUnits="userSpaceOnUse">
<stop offset="0.01"/>
<stop offset="0.12" stop-opacity="0.75"/>
<stop offset="1" stop-opacity="0"/>
</linearGradient>
</defs>
</svg>
