<svg width="24" height="24" viewBox="0 0 24 24" fill="none" xmlns="http://www.w3.org/2000/svg">
<path class='cv' d="M7.8002 15C7.64107 15 7.48845 14.9368 7.37593 14.8243C7.26341 14.7118 7.2002 14.5592 7.2002 14.4C7.2002 14.2409 7.26341 14.0883 7.37593 13.9758C7.48845 13.8633 7.64107 13.8 7.8002 13.8H16.2002C16.3593 13.8 16.5119 13.8633 16.6245 13.9758C16.737 14.0883 16.8002 14.2409 16.8002 14.4C16.8002 14.5592 16.737 14.7118 16.6245 14.8243C16.5119 14.9368 16.3593 15 16.2002 15H7.8002ZM7.8002 18C7.64107 18 7.48845 17.9368 7.37593 17.8243C7.26341 17.7118 7.2002 17.5592 7.2002 17.4C7.2002 17.2409 7.26341 17.0883 7.37593 16.9758C7.48845 16.8633 7.64107 16.8 7.8002 16.8H16.2002C16.3593 16.8 16.5119 16.8633 16.6245 16.9758C16.737 17.0883 16.8002 17.2409 16.8002 17.4C16.8002 17.5592 16.737 17.7118 16.6245 17.8243C16.5119 17.9368 16.3593 18 16.2002 18H7.8002Z" fill="black"/>
<path class='cv' d="M20.5501 8.64235V8.64231C20.55 8.15414 20.3667 7.68377 20.0366 7.32414C20.0366 7.32413 20.0366 7.32412 20.0366 7.32411L14.8598 1.68175C14.6771 1.48252 14.4549 1.32347 14.2073 1.21471C13.9598 1.10595 13.6924 1.04984 13.4221 1.04995C13.4221 1.04995 13.4221 1.04995 13.422 1.04995L5.4001 1.04995C4.88293 1.04995 4.38694 1.2554 4.02124 1.62109C3.65554 1.98679 3.4501 2.48278 3.4501 2.99995V21C3.4501 21.5171 3.65554 22.0131 4.02124 22.3788C4.38694 22.7445 4.88293 22.95 5.4001 22.95H18.6001C19.1173 22.95 19.6133 22.7445 19.979 22.3788C20.3446 22.0131 20.5501 21.5171 20.5501 21V8.64235ZM13.4221 2.54995L13.4223 2.54995C13.4847 2.54988 13.5465 2.56281 13.6037 2.58791C13.6608 2.61301 13.7122 2.64974 13.7544 2.69575L13.7544 2.69576L18.9312 8.33816L18.9313 8.3383C19.0076 8.42124 19.05 8.5298 19.0501 8.6425V21C19.0501 21.1193 19.0027 21.2338 18.9183 21.3182C18.8339 21.4025 18.7194 21.45 18.6001 21.45H5.4001C5.28075 21.45 5.16629 21.4025 5.0819 21.3181C4.99751 21.2338 4.9501 21.1193 4.9501 21V2.99995C4.9501 2.8806 4.99751 2.76614 5.0819 2.68175C5.16629 2.59736 5.28075 2.54995 5.4001 2.54995L13.4221 2.54995Z" fill="black" stroke="black" stroke-width="0.3"/>
<path class='cv-paper-flip' d="M13.8 2.52002V8.16002H19.44" stroke="black" stroke-width="1.5" stroke-linecap="round" stroke-linejoin="round"/>
<path class='cv' d="M9.76098 7.35952C9.93234 7.36476 10.103 7.33554 10.2629 7.27359C10.4227 7.21163 10.5685 7.11821 10.6916 6.99885C10.8147 6.87949 10.9125 6.73663 10.9793 6.57874C11.0461 6.42086 11.0806 6.25116 11.0806 6.07972C11.0806 5.90827 11.0461 5.73858 10.9793 5.58069C10.9125 5.4228 10.8147 5.27994 10.6916 5.16058C10.5685 5.04123 10.4227 4.9478 10.2629 4.88584C10.103 4.82389 9.93234 4.79467 9.76098 4.79992C9.42834 4.8101 9.11274 4.9494 8.88104 5.1883C8.64935 5.4272 8.51978 5.74692 8.51978 6.07972C8.51978 6.41251 8.64935 6.73223 8.88104 6.97113C9.11274 7.21003 9.42834 7.34933 9.76098 7.35952Z" fill="black"/>
<path class='cv' fill-rule="evenodd" clip-rule="evenodd" d="M12.3194 10.1329C12.3194 8.77207 11.1734 7.78687 9.7598 7.78687C8.3462 7.78687 7.2002 8.77087 7.2002 10.1329V10.7737C7.20051 10.8868 7.24566 10.9951 7.32574 11.075C7.40582 11.1548 7.5143 11.1997 7.6274 11.1997H11.8934C12.0063 11.1993 12.1145 11.1544 12.1943 11.0745C12.2741 10.9947 12.3191 10.8865 12.3194 10.7737V10.1329Z" fill="black"/>
</svg>
