<svg width="24" height="24" viewBox="0 0 24 24" fill="none" xmlns="http://www.w3.org/2000/svg">
<path class='rss' d="M9.53812 14.4619C10.2017 15.1221 10.7278 15.9073 11.086 16.772C11.4442 17.6368 11.6274 18.564 11.625 19.5001C11.625 19.7984 11.5065 20.0846 11.2955 20.2956C11.0845 20.5065 10.7984 20.6251 10.5 20.6251C10.2016 20.6251 9.91548 20.5065 9.7045 20.2956C9.49353 20.0846 9.375 19.7984 9.375 19.5001C9.375 18.2071 8.86139 16.9672 7.94715 16.0529C7.03291 15.1387 5.79293 14.6251 4.5 14.6251C4.20163 14.6251 3.91548 14.5065 3.70451 14.2956C3.49353 14.0846 3.375 13.7984 3.375 13.5001C3.375 13.2017 3.49353 12.9155 3.70451 12.7046C3.91548 12.4936 4.20163 12.3751 4.5 12.3751C5.43604 12.3725 6.36328 12.5557 7.22807 12.9139C8.09286 13.2721 8.87803 13.7983 9.53812 14.4619ZM4.5 7.87506C4.20163 7.87506 3.91548 7.99359 3.70451 8.20457C3.49353 8.41554 3.375 8.70169 3.375 9.00006C3.375 9.29843 3.49353 9.58458 3.70451 9.79556C3.91548 10.0065 4.20163 10.1251 4.5 10.1251C6.9864 10.1251 9.37097 11.1128 11.1291 12.8709C12.8873 14.6291 13.875 17.0137 13.875 19.5001C13.875 19.7984 13.9935 20.0846 14.2045 20.2956C14.4155 20.5065 14.7016 20.6251 15 20.6251C15.2984 20.6251 15.5845 20.5065 15.7955 20.2956C16.0065 20.0846 16.125 19.7984 16.125 19.5001C16.125 16.4169 14.9002 13.4601 12.7201 11.2799C10.54 9.09983 7.58314 7.87506 4.5 7.87506ZM15.9019 8.09819C14.4081 6.59603 12.6313 5.40511 10.6741 4.59438C8.71695 3.78365 6.61842 3.36921 4.5 3.37506C4.20163 3.37506 3.91548 3.49359 3.70451 3.70457C3.49353 3.91554 3.375 4.20169 3.375 4.50006C3.375 4.79843 3.49353 5.08458 3.70451 5.29556C3.91548 5.50653 4.20163 5.62506 4.5 5.62506C6.32283 5.61997 8.12857 5.97655 9.81264 6.67415C11.4967 7.37176 13.0257 8.39653 14.3109 9.68912C15.6035 10.9744 16.6283 12.5033 17.3259 14.1874C18.0235 15.8715 18.3801 17.6772 18.375 19.5001C18.375 19.7984 18.4935 20.0846 18.7045 20.2956C18.9155 20.5065 19.2016 20.6251 19.5 20.6251C19.7984 20.6251 20.0845 20.5065 20.2955 20.2956C20.5065 20.0846 20.625 19.7984 20.625 19.5001C20.6309 17.3816 20.2164 15.2831 19.4057 13.326C18.5949 11.3688 17.404 9.59192 15.9019 8.09819ZM4.875 17.6251C4.57833 17.6251 4.28832 17.713 4.04165 17.8779C3.79497 18.0427 3.60271 18.2769 3.48918 18.551C3.37565 18.8251 3.34594 19.1267 3.40382 19.4177C3.4617 19.7087 3.60456 19.9759 3.81434 20.1857C4.02412 20.3955 4.29139 20.5384 4.58237 20.5962C4.87334 20.6541 5.17494 20.6244 5.44903 20.5109C5.72311 20.3973 5.95738 20.2051 6.12221 19.9584C6.28703 19.7117 6.375 19.4217 6.375 19.1251C6.375 18.7272 6.21697 18.3457 5.93566 18.0644C5.65436 17.7831 5.27283 17.6251 4.875 17.6251Z" fill="black"/>
</svg>
